Film w wersji 3D Over-Under
Do odtworzenia filmu WYMAGANY odpowiedni sprzęt (TV 3D)

gatunek: Fantasy,Thriller,Akcja
produkcja: USA
premiera: 25 lutego 2011 (Polska) 24 lutego 2011 (świat)
reżyseria: Patrick Lussier
scenariusz: Patrick Lussier,Todd Farmer

"Piekielna zemsta" to akcja na najwyższych obrotach. Nicolas Cage w roli Miltona, zbiegłego przestępcy, ucieka z piekła, aby pomścić śmierć zamordowanej córki i wyrwać wnuczkę z rąk brutalnej sekty. Prześladuje go tajemniczy zabójca (William Fichtner). Milton, z pomocą bezwzględnej Piper (Amber Heard), zrobi wszystko, aby odkupić swoje grzechy.

========================================
BluRay 3D Rip (OU) - SONDA
========================================

General
Unique ID : 252710569301621875624813625490729475540 (0xBE1E490754C3EF2994C2A07B38C21DD4)
Complete name : E:DRIVE_ANGRY_3D(Sonda)DRIVE_ANGRY_3D.Title0(Sonda).mkv
Format : Matroska
Format version : Version 2
File size : 10.4 GiB
Duration : 1h 44mn
Overall bit rate mode : Variable
Overall bit rate : 14.2 Mbps
Movie name : DRIVE_ANGRY_3D.Title0.Bluray3D Rip by Sonda
Encoded date : UTC 2013-05-26 12:48:45
Writing application : mkvmerge v5.7.0 ('The Whirlwind') built on Jul 8 2012 20:08:51
Writing library : libebml v1.2.3 + libmatroska v1.3.0

Video
ID : 1
Format : AVC
Format/Info : Advanced Video Codec
Format profile : High@L4.1
Format settings, CABAC : Yes
Format settings, ReFrames : 2 frames
Codec ID : V_MPEG4/ISO/AVC
Duration : 1h 44mn
Bit rate mode : Variable
Maximum bit rate : 40.0 Mbps
Width : 1 920 pixels
Height : 1 080 pixels
Display aspect ratio : 16:9
Frame rate mode : Constant
Frame rate : 23.976 fps
Color space : YUV
Chroma subsampling : 4:2:0
Bit depth : 8 bits
Scan type : Progressive
Title : BluRay 3D Rip by Sonda
Writing library : x264 core
Default : Yes
Forced : No
Color primaries : BT.709
Transfer characteristics : BT.709
Matrix coefficients : BT.709

Audio #1
ID : 2
Format : AC-3
Format/Info : Audio Coding 3
Mode extension : CM (complete main)
Format settings, Endianness : Big
Codec ID : A_AC3
Duration : 1h 44mn
Bit rate mode : Constant
Bit rate : 448 Kbps
Channel(s) : 6 channels
Channel positions : Front: L C R, Side: L R, LFE
Sampling rate : 48.0 KHz
Bit depth : 16 bits
Compression mode : Lossy
Stream size : 335 MiB (3%)
Title : AC3 5.1 Lektor PL
Language : Polish
Default : Yes
Forced : Yes

Audio #2
ID : 3
Format : AC-3
Format/Info : Audio Coding 3
Mode extension : CM (complete main)
Format settings, Endianness : Big
Codec ID : A_AC3
Duration : 1h 44mn
Bit rate mode : Constant
Bit rate : 640 Kbps
Channel(s) : 6 channels
Channel positions : Front: L C R, Side: L R, LFE
Sampling rate : 48.0 KHz
Bit depth : 16 bits
Compression mode : Lossy
Stream size : 478 MiB (5%)
Title : AC3 5.1 Orginal
Language : English
Default : No
Forced : No

Audio #3
ID : 4
Format : DTS
Format/Info : Digital Theater Systems
Format profile : MA / Core
Mode : 16
Format settings, Endianness : Big
Codec ID : A_DTS
Duration : 1h 44mn
Bit rate mode : Variable
Bit rate : 4060 Kbps / 1509 Kbps
Channel(s) : 6 channels
Channel positions : Front: L C R, Side: L R, LFE
Sampling rate : 48.0 KHz
Bit depth : 24 bits
Compression mode : Lossless / Lossy
Title : DTS-HD MA 5.1 Orginal
Language : English
Default : No
Forced : No

Text
ID : 5
Format : UTF-8
Codec ID : S_TEXT/UTF8
Codec ID/Info : UTF-8 Plain Text
Language : Polish
Default : No
Forced : No

Menu
00:00:00.000 : en:(01)00:00:00:000
00:08:27.632 : en:(02)00:08:27:632
00:12:33.586 : en:(03)00:12:33:586
00:16:32.533 : en:(04)00:16:32:533
00:19:43.682 : en:(05)00:19:43:682
00:26:28.003 : en:(06)00:26:28:003
00:30:20.109 : en:(07)00:30:20:109
00:35:38.469 : en:(08)00:35:38:469
00:42:12.112 : en:(09)00:42:12:112
00:50:48.211 : en:(10)00:50:48:211
00:54:09.579 : en:(11)00:54:09:579
00:58:14.782 : en:(12)00:58:14:782
01:02:11.436 : en:(13)01:02:11:436
01:10:48.702 : en:(14)01:10:48:702
01:16:05.477 : en:(15)01:16:05:477
01:21:48.820 : en:(16)01:21:48:820
01:27:33.206 : en:(17)01:27:33:206
01:33:57.632 : en:(18)01:33:57:632
01:44:31.014 : en:(19)01:44:31:014 

